<?xml version="1.0" encoding="UTF-8"?>
<svg xmlns="http://www.w3.org/2000/svg" width="16" height="16" viewBox="0 0 16 16"><g fill="#222222"><path d="M 2 6 C 1.446 6 1 6.446 1 7 L 1 14 C 1 14.554 1.446 15 2 15 L 9 15 C 9.554 15 10 14.554 10 14 L 10 10.9 C 7.72 10.44 6 8.42 6 6 L 2 6 z"/><path d="M 11 1 C 8.791 1 7 2.791 7 5 C 7 7.209 8.791 9 11 9 C 13.209 9 15 7.209 15 5 C 15 2.791 13.209 1 11 1 z M 11 2.5 C 12.381 2.5 13.5 3.619 13.5 5 C 13.5 6.381 12.381 7.5 11 7.5 C 9.619 7.5 8.5 6.381 8.5 5 C 8.5 3.619 9.619 2.5 11 2.5 z"/></g></svg>
